Simulation
nRows=32
nColumns=15
endheader
time  TH_x TH_y TH_z SC_y  SC_z  SC_x  AC_y  AC_z  AC_x  GH_y  GH_z  GH_yy  EL_x  PS_y
8.6175  0.000000  0.000000  0.000000  -43.96369043108963  3.1497667841433556  -0.683568857546974  42.058599208147015  5.012102889024448  -2.088690018209777  123.36744234795424  5.758194112407363  -99.26282541261082  20.330156292053402  120.000000
8.67495  0.000000  0.000000  0.000000  -42.22428537996984  2.1925642444239064  -2.0818137498724867  41.375203621741555  4.773949781529117  -2.427417137557322  107.15286695924404  5.538043770988106  -84.20859411319316  20.246049806352534  120.000000
8.7324  0.000000  0.000000  0.000000  -40.23594863817773  1.0650816498395252  -3.821631975761888  40.657237636939115  4.604008090361928  -2.550895366383514  88.54124768629941  6.1973116635659  -66.74298072042227  20.313846835611727  120.000000
8.78985  0.000000  0.000000  0.000000  -38.1968603269772  -0.10592156953357265  -5.808504695997838  39.933828915569634  4.575609277963948  -2.431771321556294  74.30156766495952  7.9182130538399305  -53.60387596722836  20.50178149237911  120.000000
8.8473  0.000000  0.000000  0.000000  -36.32330255249958  -1.145036119802704  -7.88447320471139  39.227462828081094  4.751704664429294  -2.073378676244737  66.65862450782103  10.527330035691278  -47.015297177584394  20.749452034841983  120.000000
8.90475  0.000000  0.000000  0.000000  -34.70848038854032  -1.8129813712712848  -9.778858426493418  38.58723488514867  5.144812635043476  -1.5368868137333498  64.25062175542843  13.6946563343594  -45.63213755910071  21.01458607308638  120.000000
8.9622  0.000000  0.000000  0.000000  -33.355540115640125  -1.9242793094296116  -11.161457184907276  38.05767376313383  5.791636153743514  -0.8917863777624812  65.37393180734661  17.03900239263832  -47.84973428158662  21.248016241655773  120.000000
9.01965  0.000000  0.000000  0.000000  -32.269380536376  -1.3161133861424525  -11.773371404225271  37.65865431154267  6.741121017131441  -0.10795790813059931  68.93404363895104  20.25731604864993  -52.72656918249412  21.4084231432961  120.000000
9.0771  0.000000  0.000000  0.000000  -31.490990531119213  0.21359506405316867  -11.43590044074715  37.491207314909424  7.965566594915988  0.8601733302708588  74.23463313354105  23.283569153556773  -59.69414485535166  21.498481224515313  120.000000
9.13455  0.000000  0.000000  0.000000  -31.172446146559384  2.7169796620082907  -9.95355332734104  37.52407856747725  9.295116945691294  2.058156543179601  80.63932540411432  26.206247474697705  -68.16898962169104  21.539026055930922  120.000000
9.192  0.000000  0.000000  0.000000  -31.487894168565592  6.185708543242935  -7.1291100739017725  37.77754889174639  10.416129586054074  3.542046551670422  87.47859941042822  29.208807342875307  -77.46455847112172  21.550778997392808  120.000000
9.24945  0.000000  0.000000  0.000000  -32.6226689564546  10.38971752714587  -2.8386506751266714  38.40020288872784  10.985086149461944  5.400345928868329  93.82483245491493  32.45466423952766  -86.6339619951464  21.522840201552267  120.000000
9.3069  0.000000  0.000000  0.000000  -34.7183771315677  14.890214382998446  2.974182897512156  39.404024110369726  10.702066114171785  7.748960427352523  98.94447560295978  35.93897940296315  -94.85958593001602  21.435831246003463  120.000000
9.36435  0.000000  0.000000  0.000000  -37.80918137815168  19.34846693949123  10.130616929914328  41.10754719227984  9.377731895588731  10.50576232565377  101.76215285846891  39.41952571371787  -101.16457680558615  21.263702585289593  120.000000
9.421800000000001  0.000000  0.000000  0.000000  -41.84880643234235  23.320639039384883  18.23123650708786  43.805237810746185  7.0118143694341075  13.441920217124245  101.33421523857106  42.225900532642584  -104.83047993797975  20.92106500992319  120.000000
9.47925  0.000000  0.000000  0.000000  -46.44431542544917  26.331423148116492  26.788246854146635  47.240622046108214  3.970479317761555  16.18260453762722  98.03287322803185  44.008989991914525  -106.03099029177774  20.395958348321173  120.000000
9.5367  0.000000  0.000000  0.000000  -50.84683807253473  28.120932296226098  35.09773795040885  50.91430112358593  0.7290945288252046  18.364636859722882  92.81100949013315  45.066802966444335  -105.22457557658947  19.77226348923453  120.000000
9.59415  0.000000  0.000000  0.000000  -54.30969642924019  28.678776034223493  42.39843469971552  54.40523608341605  -2.3979646910035233  19.892179603567865  86.59031733022162  45.800183842774274  -102.89617767373346  19.1241971001238  120.000000
9.6516  0.000000  0.000000  0.000000  -56.47050458552484  28.293230904298138  48.232315345046835  57.45050608089848  -5.115623438395635  20.858609028339885  80.2667452835154  46.500030659716884  -99.63478503467013  18.50421701479567  120.000000
9.70905  0.000000  0.000000  0.000000  -57.48408800435462  27.348205074808895  52.570348319381374  59.90305213918792  -7.205421897768913  21.398129041319997  74.59197826699453  47.32428806289151  -96.0374451854755  17.97333820228286  120.000000
9.7665  0.000000  0.000000  0.000000  -57.77710284242211  26.191348570983532  55.661363380197315  61.67202750499479  -8.609065716559375  21.59589460029398  70.0717817488335  48.265230122578274  -92.64844996008438  17.58574816142837  120.000000
9.82395  0.000000  0.000000  0.000000  -57.81299621503194  25.176856409892114  57.829588617183596  62.7424509019079  -9.493364365715989  21.554690158584037  66.89867611655077  49.18287674730859  -89.8687583094956  17.338774039411504  120.000000
9.8814  0.000000  0.000000  0.000000  -57.82002548955524  24.494375500122846  59.29985934607766  63.223275011018515  -10.080690007193157  21.346791712933822  64.96906147689006  49.91011273766988  -87.8536738294052  17.21449637201673  120.000000
9.93885  0.000000  0.000000  0.000000  -57.75513812436392  24.12731117688691  60.15721033400683  63.297754986647746  -10.522224432734347  20.99572270721919  64.03314258629567  50.33224874610246  -86.56746851866382  17.190107706976256  120.000000
9.9963  0.000000  0.000000  0.000000  -57.57164948184379  24.0555027921288  60.49722655372684  63.13614952423805  -10.980559128628078  20.527565225863913  63.860971616789634  50.382240971538046  -85.88820380413343  17.226906980587376  120.000000
10.05375  0.000000  0.000000  0.000000  -57.27261644074482  24.27022826620754  60.328206751738165  62.86745370458722  -11.562894586969904  19.961930156457314  64.2763830674683  50.08314994986085  -85.62292145790587  17.28691985521158  120.000000
10.1112  0.000000  0.000000  0.000000  -56.72677902982962  24.630365934748372  59.351416819773554  62.593865735550224  -12.203839594933203  19.274629460373035  65.05541664366444  49.585255718121715  -85.44788380332808  17.356972632405434  120.000000
10.16865  0.000000  0.000000  0.000000  -55.723988385702356  24.845974980935257  57.1144214368689  62.400198486516814  -12.739052612869166  18.41494095878302  65.90451802559711  49.06187573452541  -84.91680348818232  17.43237221905274  120.000000
10.2261  0.000000  0.000000  0.000000  -54.15829354104364  24.618092429328847  53.27198413982053  62.2847662381389  -13.015944404883111  17.37921359095846  66.5443339019918  48.58115488355733  -83.55480582055083  17.490222314486637  120.000000
10.28355  0.000000  0.000000  0.000000  -52.08282542036366  23.714689983484988  47.70480135812451  62.143082853815365  -12.864217492944777  16.21109978005606  66.76212546771784  48.09678546990364  -80.95859967292304  17.506240017758184  120.000000
10.341000000000001  0.000000  0.000000  0.000000  -49.66658824863488  21.975842175011557  40.54356910052246  61.79590465991492  -12.150729191212758  14.996779597127258  66.39334782380199  47.50409686848621  -76.88072433379746  17.47041357530897  120.000000
10.39845  0.000000  0.000000  0.000000  -47.14558553954451  19.43967423458699  32.15610070960551  61.050551775615155  -10.833736645726855  13.831488394474073  65.33981268776353  46.741604843562456  -71.32694991056009  17.390527510339336  120.000000
